<svg width="48" height="48" viewBox="0 0 48 48" fill="none" xmlns="http://www.w3.org/2000/svg">
<path d="M17.1064 11C17.9097 11 18.6774 11.3218 19.2393 11.8896L19.3486 12.0068L22.0088 15H37C38.6569 15 40 16.3431 40 18V21H38V18C38 17.4477 37.5523 17 37 17H21.5605L21.4541 16.9941C21.208 16.9679 20.9786 16.8509 20.8125 16.6641L17.8535 13.3359C17.6637 13.1225 17.3921 13 17.1064 13H7L6.89746 13.0049C6.39333 13.0562 6 13.4823 6 14V36L6.00488 36.1025C6.05621 36.6067 6.48232 37 7 37H37.4873C37.9079 37 38.2841 36.737 38.4277 36.3418L40 32.0127V36C40 37.6569 38.6569 39 37 39H7C5.34315 39 4 37.6569 4 36V14C4 12.3431 5.34314 11 7 11H17.1064Z" fill="black"/>
<path d="M33 18C34.6569 18 36 19.3431 36 21H34C34 20.4477 33.5523 20 33 20H26V21C26 21.5523 25.5523 22 25 22C24.4477 22 24 21.5523 24 21V20H22V21C22 21.5523 21.5523 22 21 22C20.4477 22 20 21.5523 20 21V20H18V21C18 21.5523 17.5523 22 17 22C16.4477 22 16 21.5523 16 21V20H12C11.4477 20 11 20.4477 11 21V26.6748L9 30.8047V21C9 19.3431 10.3431 18 12 18H33Z" fill="black"/>
<path d="M32.8242 20C32.255 20 31.7124 20.2427 31.333 20.667L28.3525 24H12.4385C11.672 24 10.9729 24.4381 10.6387 25.1279L5.7959 35.1279C5.15264 36.4561 6.11995 38 7.5957 38H37.4873C38.3286 38 39.08 37.4733 39.3672 36.6826L44.4531 22.6826C44.9265 21.3786 43.9605 20.0003 42.5732 20H32.8242Z" stroke="black" stroke-width="2"/>
</svg>
