<svg width="48" height="48" viewBox="0 0 48 48" fill="none" xmlns="http://www.w3.org/2000/svg">
<path d="M34.2205 21.6626C34.2205 28.6559 27.4174 34.3251 19.0254 34.3251C16.7659 34.3251 14.6215 33.9141 12.6941 33.177C11.3019 32.6445 4.3247 34.5329 3.19723 33.692C2.00041 32.7993 6.67254 29.1598 5.86319 27.9938C4.57031 26.1313 3.83036 23.969 3.83036 21.6626C3.83036 14.6692 10.6334 9 19.0254 9C27.4174 9 34.2205 14.6692 34.2205 21.6626Z" stroke="black" stroke-width="2"/>
<path d="M33.4785 12.639C39.5949 14.5382 44.0847 19.4693 44.085 25.4613C44.0849 27.9178 43.3157 30.2156 41.9873 32.1937C42.016 32.2705 42.0655 32.3864 42.1572 32.5423C42.4205 32.9896 42.8404 33.5206 43.3164 34.1263C43.7581 34.6883 44.2685 35.3399 44.5762 35.9202C44.7276 36.206 44.8873 36.5767 44.9121 36.9759C44.9408 37.4397 44.7804 37.9454 44.3154 38.2923C43.9448 38.5687 43.4787 38.6505 43.1416 38.6839C42.7645 38.7213 42.334 38.7154 41.8936 38.6888C41.0108 38.6354 39.9483 38.4887 38.9238 38.3392C37.879 38.1868 36.8711 38.0309 36.0312 37.9447C35.6129 37.9017 35.2609 37.8794 34.9854 37.8802C34.6977 37.8811 34.5855 37.909 34.5781 37.9105C32.5359 38.6915 30.2701 39.1243 27.8896 39.1243C24.6198 39.1243 21.5358 38.2949 18.9541 36.8558C19.0022 36.8561 19.0504 36.8577 19.0986 36.8577C20.4972 36.8577 21.858 36.7196 23.1641 36.4613C24.6338 36.887 26.2215 37.1243 27.8896 37.1243C30.0278 37.1243 32.0511 36.7354 33.8633 36.0423C34.216 35.9075 34.6314 35.8812 34.9795 35.8802C35.3561 35.8791 35.7868 35.9094 36.2354 35.9554C37.1302 36.0472 38.1989 36.2118 39.2129 36.3597C40.2473 36.5106 41.2288 36.6452 42.0146 36.6927C42.2929 36.7095 42.5301 36.7129 42.7246 36.7064C42.5067 36.3415 42.1605 35.8924 41.7441 35.3626C41.3033 34.8016 40.7813 34.1476 40.4336 33.557C40.2599 33.2618 40.0891 32.9163 40.0078 32.556C39.9252 32.1892 39.9112 31.6831 40.2305 31.223C41.4169 29.5138 42.0849 27.547 42.085 25.4613C42.0848 21.3987 39.4966 17.7117 35.498 15.6146C34.9564 14.5544 34.277 13.5572 33.4785 12.639Z" fill="black"/>
</svg>
