<svg width="48" height="48" viewBox="0 0 48 48" fill="none" xmlns="http://www.w3.org/2000/svg">
<mask id="mask0_43_206" style="mask-type:alpha" maskUnits="userSpaceOnUse" x="0" y="8" width="49" height="28">
<path d="M48.0015 35.1995H0.00146484V8.80006H48.0015V35.1995ZM24.0015 23.0003C22.2777 23.0003 21.6524 23.4286 19.1265 24.3333C14.3623 26.0397 11.0015 30.1729 11.0015 35.0003H37.0015C37.0015 30.1729 33.6407 26.0397 28.8765 24.3333C27.0153 23.6666 25.7254 23.0003 24.0015 23.0003Z" fill="#D9D9D9"/>
</mask>
<g mask="url(#mask0_43_206)">
<path d="M39.9355 22.8682C43.7727 24.2274 46.6014 27.5721 46.6016 31.5996V32.5996H25.4014V31.5996C25.4015 27.572 28.2301 24.2274 32.0674 22.8682L32.4639 22.7276L32.8418 22.9131C34.1152 23.5386 35.0107 23.9999 36.001 24C36.9913 24 37.8868 23.5386 39.1602 22.9131L39.5381 22.7276L39.9355 22.8682Z" stroke="black" stroke-width="2"/>
<path d="M36.0015 12.2C37.9927 12.2 39.8013 14.0564 39.8013 16.6004C39.8011 19.1443 37.9926 20.9998 36.0015 20.9998C34.0104 20.9997 32.2018 19.1442 32.2017 16.6004C32.2017 14.0565 34.0103 12.2002 36.0015 12.2Z" stroke="black" stroke-width="2"/>
<path d="M15.9358 22.8682C19.773 24.2274 22.6016 27.5721 22.6018 31.5996V32.5996H1.40161V31.5996C1.40177 27.572 4.23035 24.2274 8.06763 22.8682L8.46411 22.7276L8.84204 22.9131C10.1155 23.5386 11.011 23.9999 12.0012 24C12.9915 24 13.887 23.5386 15.1604 22.9131L15.5383 22.7276L15.9358 22.8682Z" stroke="black" stroke-width="2"/>
<path d="M12.0015 12.2001C13.9927 12.2001 15.8013 14.0564 15.8013 16.6004C15.8011 19.1443 13.9926 20.9999 12.0015 20.9999C10.0104 20.9997 8.20184 19.1442 8.20166 16.6004C8.20166 14.0565 10.0103 12.2002 12.0015 12.2001Z" stroke="black" stroke-width="2"/>
</g>
<path d="M27.9355 26.4682C31.7727 27.8274 34.6014 31.1721 34.6016 35.1996V36.1996H13.4014V35.1996C13.4015 31.172 16.2301 27.8274 20.0674 26.4682L20.4639 26.3276L20.8418 26.5131C22.1152 27.1386 23.0107 27.5999 24.001 27.6C24.9913 27.6 25.8868 27.1386 27.1602 26.5131L27.5381 26.3276L27.9355 26.4682Z" stroke="black" stroke-width="2"/>
<path d="M24.0015 15.8C25.9927 15.8 27.8013 17.6564 27.8013 20.2004C27.8011 22.7443 25.9926 24.5998 24.0015 24.5998C22.0104 24.5997 20.2018 22.7442 20.2017 20.2004C20.2017 17.6565 22.0103 15.8002 24.0015 15.8Z" stroke="black" stroke-width="2"/>
</svg>
