<svg width="48" height="48" viewBox="0 0 48 48" fill="none" xmlns="http://www.w3.org/2000/svg">
<path d="M28 13C29.6569 13 31 14.3431 31 16V34H14.7305C14.9009 33.7056 15 33.3646 15 33C15 32.6354 14.9009 32.2944 14.7305 32H29V16C29 15.4477 28.5523 15 28 15H7C6.44772 15 6 15.4477 6 16V31C6 31.5177 6.39333 31.9438 6.89746 31.9951L7 32H11.2695C11.0991 32.2944 11 32.6354 11 33C11 33.3646 11.0991 33.7056 11.2695 34H7C5.34315 34 4 32.6569 4 31V16C4 14.3431 5.34315 13 7 13H28Z" fill="black"/>
<path d="M35.2188 18C36.5091 18 37.6445 18.8233 38.0566 20.0264L38.1299 20.2725L38.7168 22.6221L41.3418 23.9346C42.3581 24.4428 43 25.4819 43 26.6182V31C43 32.6569 41.6569 34 40 34H37.7305C37.9009 33.7056 38 33.3646 38 33C38 32.6354 37.9009 32.2944 37.7305 32H40L40.1025 31.9951C40.573 31.9472 40.9472 31.573 40.9951 31.1025L41 31V26.6182C41 26.2867 40.8363 25.9799 40.5684 25.7949L40.4473 25.7236L37.4111 24.2061C37.1829 24.0919 37.0085 23.8951 36.9209 23.6582L36.8887 23.5537L36.1895 20.7578C36.0782 20.3126 35.6776 20 35.2188 20H32C31.4477 20 31 20.4477 31 21V32H34.2695C34.0991 32.2944 34 32.6354 34 33C34 33.3646 34.0991 33.7056 34.2695 34H29V21C29 19.3431 30.3431 18 32 18H35.2188Z" fill="black"/>
<circle cx="13" cy="33" r="3" stroke="black" stroke-width="2"/>
<circle cx="36" cy="33" r="3" stroke="black" stroke-width="2"/>
</svg>
