<svg width="48" height="48" viewBox="0 0 48 48" fill="none" xmlns="http://www.w3.org/2000/svg">
<path d="M23.2979 6.19531C23.7506 6.02557 24.2494 6.02557 24.7021 6.19531L42.7021 12.9453C43.4827 13.238 44 13.9847 44 14.8184V33.6191C44 34.4528 43.4828 35.1995 42.7021 35.4922L24.7021 42.2422C24.2494 42.4119 23.7506 42.4119 23.2979 42.2422L5.29785 35.4922C4.51725 35.1995 4 34.4528 4 33.6191V14.8184C4 13.9847 4.51724 13.238 5.29785 12.9453L23.2979 6.19531Z" stroke="black" stroke-width="2"/>
<path d="M5 14.125L24 21.25" stroke="black" stroke-width="2"/>
<path d="M43 14.125L24 21.25" stroke="black" stroke-width="2"/>
<path d="M31.125 8.1875L9.99907 16.1097" stroke="black" stroke-width="2"/>
<path d="M36.8892 10.5625L15.7632 18.4847" stroke="black" stroke-width="2"/>
<path d="M24 21.25L24 41.4375" stroke="black" stroke-width="2"/>
</svg>
