<svg width="48" height="48" viewBox="0 0 48 48" fill="none" xmlns="http://www.w3.org/2000/svg">
<mask id="mask0_43_258" style="mask-type:alpha" maskUnits="userSpaceOnUse" x="2" y="4" width="44" height="43">
<path d="M46 46.5332H42.5332C43.6378 46.5332 44.5332 45.6378 44.5332 44.5332V26.5332C44.5331 25.4287 43.6377 24.5332 42.5332 24.5332H30.4004C29.2959 24.5332 28.4005 25.4287 28.4004 26.5332V44.5332C28.4004 45.6378 29.2958 46.5332 30.4004 46.5332H2V4H46V46.5332Z" fill="black"/>
</mask>
<g mask="url(#mask0_43_258)">
<path d="M11.0554 15.2667H34.0115C34.5062 15.2669 34.9263 15.6289 34.9998 16.1182L38.8005 41.4512C38.8912 42.0558 38.4226 42.5996 37.8113 42.5997H7.25562C6.6443 42.5996 6.17567 42.0558 6.26636 41.4512L10.0671 16.1182C10.1406 15.6289 10.5606 15.2668 11.0554 15.2667Z" stroke="black" stroke-width="2"/>
</g>
<path d="M17.4001 17.2C17.4001 17.2 17.4001 17.2 17.4001 11.3333C17.4001 5.46667 22.5335 5.46667 22.5335 5.46667C22.5335 5.46667 27.6668 5.46667 27.6668 11.3333C27.6668 17.2 27.6668 17.2 27.6668 17.2" stroke="black" stroke-width="2" stroke-linecap="round"/>
<path d="M41.688 28.9372C43.2729 29.0178 44.5337 30.3284 44.5337 31.9333V43.5329L44.5298 43.6872C44.4523 45.2213 43.2219 46.4511 41.688 46.529L41.5337 46.5329H32.8667C31.2098 46.5329 29.8667 45.1898 29.8667 43.5329V31.9333C29.8667 30.2986 31.1741 28.9696 32.8003 28.9343V30.8669C32.8003 30.8903 32.8016 30.9133 32.8032 30.9363C32.2805 30.969 31.8667 31.4023 31.8667 31.9333V43.5329C31.8667 44.0852 32.3144 44.5329 32.8667 44.5329H41.5337C42.0858 44.5327 42.5337 44.0851 42.5337 43.5329V31.9333C42.5337 31.4022 42.1191 30.9688 41.5962 30.9363C41.5978 30.9133 41.6001 30.8903 41.6001 30.8669V28.9343L41.688 28.9372Z" fill="black"/>
<line x1="33.8" y1="41.1333" x2="40.6" y2="41.1333" stroke="black" stroke-width="2" stroke-linecap="round"/>
<line x1="33.8" y1="35.2667" x2="40.6" y2="35.2667" stroke="black" stroke-width="2" stroke-linecap="round"/>
<line x1="33.8" y1="38.2" x2="40.6" y2="38.2" stroke="black" stroke-width="2" stroke-linecap="round"/>
<path d="M37.4963 27.3615C37.8352 28.0386 38.5272 28.4668 39.2844 28.4669H40.5999V30.8663H33.803L33.8 30.8654V28.4669H35.1155C35.8729 28.4669 36.5657 28.0389 36.9045 27.3615L37.2004 26.7697L37.4963 27.3615Z" stroke="black" stroke-width="2"/>
</svg>
